Coordinates
version=1
nRows=13
nColumns=34
inDegrees=yes

Units are S.I. units (second, meters, Newtons, ...)
If the header above contains a line with 'inDegrees', this indicates whether rotational values are in degrees (yes) or radians (no).

endheader
time	pelvis_tilt	pelvis_list	pelvis_rotation	pelvis_tx	pelvis_ty	pelvis_tz	hip_flexion_r	hip_adduction_r	hip_rotation_r	knee_angle_r	ankle_angle_r	subtalar_angle_r	mtp_angle_r	hip_flexion_l	hip_adduction_l	hip_rotation_l	knee_angle_l	ankle_angle_l	subtalar_angle_l	mtp_angle_l	lumbar_extension	lumbar_bending	lumbar_rotation	arm_flex_r	arm_add_r	arm_rot_r	elbow_flex_r	pro_sup_r	arm_flex_l	arm_add_l	arm_rot_l	elbow_flex_l	pro_sup_l
      0.00000000	     -1.01215886	     -1.37500707	     -1.25324903	      1.71048464	      0.87004799	     -0.01781489	      1.96298748	     -2.59334496	     -4.47581355	      8.50025538	      0.35862911	    -21.18580495	      0.00000000	     -0.55801801	     -6.34913127	     -1.55589473	      3.98363044	      8.74102578	     -3.86041079	      0.00000000	      0.91206361	      6.67178913	     11.76265855	     -9.37058148	     -7.21213597	    -11.69393598	    120.45474333	     98.23844414	    106.57904977	    -29.51469492	     61.55517129	    123.55418758	     77.26151832
      0.01666670	     -2.83526667	     -0.98087807	     -0.78535037	      1.71171490	      0.86835292	     -0.01715357	      4.20370382	     -2.63708294	     -3.83217997	      8.64449554	      4.24428579	    -20.01038773	      0.00000000	      2.50613638	     -5.87696312	     -0.81787998	      4.39136859	      8.81198888	     -2.55792055	      0.00000000	      3.22956211	      6.35000338	      9.36580922	     -8.75937064	     -6.26694674	    -12.31636442	    119.70964270	     97.46700840	    111.05501961	    -33.87390422	     64.03161440	    125.57015034	     77.95289537
      0.03333330	     -3.26549462	     -0.27698164	     -0.63965390	      1.71159278	      0.86818577	     -0.01455854	      4.24952603	     -3.33702737	     -4.22313517	      7.70156157	      4.19706370	    -19.93368356	      0.00000000	      3.03313271	     -5.44522335	     -0.98123941	      4.01600682	      7.98919679	     -1.72988229	      0.00000000	      3.78355944	      5.29078955	      9.08157314	     -8.47955339	     -5.82256259	    -12.97043990	    119.31194591	     97.16837811	    113.22481404	    -34.65016479	     63.56081636	    126.45287751	     78.23006354
      0.05000000	     -2.69175715	      0.12566348	     -0.32178172	      1.71155299	      0.86938465	     -0.01139775	      3.13036657	     -3.69458270	     -4.11723986	      7.02563959	      4.82399699	    -19.57091547	      0.00000000	      2.09728717	     -5.21116282	     -0.57269053	      3.46779319	      7.81350022	     -1.45629841	      0.00000000	      3.22413505	      4.66661674	      7.63400085	     -7.15173319	     -5.36530977	    -12.33472456	    117.62014539	     95.87727461	    115.00134278	    -36.05666587	     65.40785815	    127.13073966	     80.13197438
      0.06666670	     -2.76219374	      0.22027779	     -0.23211769	      1.71130366	      0.86918061	     -0.00777027	      3.11645259	     -3.59033924	     -4.08321910	      6.93598104	      4.90488848	    -19.60388197	      0.00000000	      2.11249483	     -5.34423585	     -0.53909419	      3.32573721	      7.79144333	     -1.44368540	      0.00000000	      3.18224512	      4.50564958	      7.66339491	     -7.07688974	     -5.32202365	    -12.35726556	    117.60352239	     95.86639045	    114.92743504	    -36.08136075	     65.41202906	    127.14343342	     80.14490485
      0.08333330	     -2.32429258	      0.31045470	     -0.06691989	      1.71169232	      0.86939379	     -0.00381083	      2.28686162	     -3.35735663	     -3.70307755	      6.44614942	      5.45577651	    -20.19324077	      0.00000000	      1.24897652	     -5.44006510	      0.00190025	      2.58963750	      7.10516933	     -1.53256878	      0.00000000	      3.12802057	      4.44119395	      7.25716743	     -6.40623690	     -4.32008237	    -13.12243707	    116.47035270	     95.52579965	    113.74174564	    -36.00377358	     64.86548270	    127.04933399	     80.45836690
      0.10000000	     -2.28296506	      0.19234879	      0.01423559	      1.71117633	      0.86909620	      0.00051669	      2.15987979	     -2.89280109	     -3.44116007	      6.27742239	      5.63199976	    -20.29739307	      0.00000000	      1.22444599	     -5.83376746	      0.29359194	      2.55281446	      6.99694907	     -1.49002650	      0.00000000	      3.08362939	      4.49077789	      7.13829920	     -6.23376637	     -3.98312853	    -12.96494490	    116.48879291	     95.45164673	    113.64123509	    -35.77326260	     64.63197014	    126.97673629	     80.52295241
      0.11666670	     -2.24900016	      0.26132841	      0.00567197	      1.71019599	      0.86932791	      0.00471497	      2.16513668	     -2.64300900	     -3.43109606	      6.22956275	      5.66007382	    -20.32206959	      0.00000000	      1.23559734	     -6.03619724	      0.35396068	      2.56590766	      6.95876793	     -1.48387844	      0.00000000	      3.02018619	      4.28499165	      7.15776982	     -6.23273170	     -3.91069815	    -12.91973802	    116.48596002	     95.44007342	    113.56276002	    -35.80046533	     64.60584419	    126.96049054	     80.53142912
      0.13333330	     -1.78084615	      0.03258500	      0.12777924	      1.70907337	      0.86974758	      0.00829180	      1.41425616	     -1.98079149	     -2.71295334	      5.62370303	      5.29921671	    -21.36043740	      0.00000000	      0.79432301	     -6.57000318	      1.22464653	      2.53521326	      6.06622986	     -2.56822751	      0.00000000	      2.53031681	      4.69074789	      7.20395603	     -6.12531957	     -3.30633720	    -12.23301944	    116.39529512	     93.81061200	    111.50290857	    -35.46878520	     61.49511742	    126.70609194	     81.39063380
      0.15000000	     -1.69719569	     -0.03740425	      0.16615414	      1.70809924	      0.86957904	      0.01171901	      1.34963285	     -1.58021503	     -2.60704511	      5.50400607	      5.32277254	    -21.33896608	      0.00000000	      0.87538092	     -6.93608777	      1.34035005	      2.72341573	      5.83170296	     -2.44588951	      0.00000000	      2.40656147	      4.65089939	      7.15135058	     -6.31875718	     -2.86423021	    -12.08894783	    116.38583557	     93.72745816	    111.35281209	    -35.48835334	     61.45129112	    126.64897871	     81.43227269
      0.16666670	     -1.66798046	      0.00869584	      0.10830629	      1.70732052	      0.86921752	      0.01524859	      1.38004699	     -1.34931652	     -2.61183240	      5.44353638	      5.32845462	    -21.34160197	      0.00000000	      0.89888188	     -7.15166328	      1.37129502	      2.73621735	      5.78511332	     -2.43076349	      0.00000000	      2.35134854	      4.42225742	      7.14932841	     -6.34727293	     -2.81103053	    -12.08488787	    116.39848106	     93.71291304	    111.27404221	    -35.55384768	     61.43541676	    126.63704586	     81.43693109
      0.18333330	     -1.70329662	     -0.25316095	      0.13502378	      1.70684315	      0.86949783	      0.01824154	      1.25558686	     -0.76970587	     -2.26712381	      5.03011545	      4.98341087	    -21.74240503	      0.00000000	      0.98316847	     -7.69070604	      1.56746913	      2.69977092	      5.16374483	     -2.77269046	      0.00000000	      2.46398164	      5.07443696	      7.33632830	     -6.82531032	     -2.28338045	    -12.52989022	    117.13368102	     90.69418736	    108.67991350	    -35.91952232	     58.46708234	    126.80341560	     82.35692613
      0.20000000	     -1.70447215	     -0.21377739	      0.00166931	      1.70633807	      0.87083547	      0.02073890	      1.29112856	     -0.59843213	     -2.28701946	      4.96442978	      4.98746960	    -21.74831005	      0.00000000	      1.01295554	     -7.87449136	      1.61629319	      2.70631202	      5.11225410	     -2.74496169	      0.00000000	      2.37373966	      4.85052870	      7.32772747	     -6.85161368	     -2.33483926	    -12.58436204	    117.12071806	     90.68171742	    108.59128143	    -36.00276372	     58.48003357	    126.80688418	     82.36104896
